#!OML:ASF H:\Terrain\Patient Classification 1\Takeo\Monday\TakeoMonday.ASF
:FULLY-SPECIFIED
:DEGREES
33
root 6.639 17.4841 -0.743116 -4.65604 6.14133 -1.13931
lowerback 5.11635 -3.19801 3.54111
upperback 2.7315 -4.10757 -1.03745
thorax -0.373082 -2.01876 -2.818
lowerneck -9.71876 -3.33574 -3.13921
upperneck -0.381751 -4.31781 7.66168
head 1.84758 -1.96904 2.84129
rclavicle -1.87479e-014 -1.15295e-014
rhumerus -19.7914 37.8006 -109.638
rradius 64.3403
rwrist -8.82797
rhand -49.2486 49.2698
rfingers 7.12502
rthumb -21.8677 20.4855
lclavicle -1.87479e-014 -1.15295e-014
lhumerus -11.1706 -31.8292 102.152
lradius 78.0749
lwrist 27.9588
lhand -42.0896 15.5436
lfingers 7.12502
lthumb -14.9815 44.9817
rfemur -11.3271 5.45155 15.0941
rtibia 38.3313
rfoot -13.3662 -11.4423
rtoes -15.9494
lfemur -3.99765 0.961433 -23.8969
ltibia 30.8872
lfoot -22.6547 19.7091
ltoes 6.30977
34
root 6.64576 17.4921 -0.742126 -4.63426 6.93642 -1.25647
lowerback 5.00774 -3.32515 3.78523
upperback 2.72861 -4.27071 -1.1035
thorax -0.349886 -2.09765 -3.01749
lowerneck -9.61134 -3.33221 -3.33267
upperneck -0.297998 -4.31058 8.03114
head 1.87518 -1.95744 3.00572
rclavicle -2.30093e-014 -7.15625e-015
rhumerus -19.758 37.8205 -109.656
rradius 64.2458
rwrist -8.96184
rhand -49.3669 50.2378
rfingers 7.12502
rthumb -21.9814 21.4668
lclavicle -2.30093e-014 -7.15625e-015
lhumerus -11.1371 -32.1161 102.094
lradius 78.0293
lwrist 27.8709
lhand -41.8562 15.5125
lfingers 7.12502
lthumb -14.7567 44.9672
rfemur -11.5744 5.20475 15.1215
rtibia 39.0186
rfoot -13.3491 -11.3259
rtoes -17.2016
lfemur -3.93909 0.493669 -23.8169
ltibia 30.5887
lfoot -22.3073 19.5231
ltoes 6.20988
35
root 6.6489 17.494 -0.740433 -4.64267 7.70361 -1.10394
lowerback 4.94765 -3.4566 3.65358
upperback 2.7418 -4.45397 -1.15457
thorax -0.312128 -2.18923 -2.9891
lowerneck -10.1144 -3.42762 -2.95651
upperneck 0.329255 -4.48696 7.39244
head 2.1498 -2.03972 2.70525
rclavicle -7.76875e-014 2.5842e-015
rhumerus -19.7789 37.9171 -109.571
rradius 64.3083
rwrist -8.94996
rhand -49.3964 50.52
rfingers 7.12502
rthumb -22.0097 21.7523
lclavicle -7.76875e-014 2.5842e-015
lhumerus -11.1564 -32.1115 102.163
lradius 78.0602
lwrist 27.6841
lhand -41.6251 15.0629
lfingers 7.12502
lthumb -14.534 44.5338
rfemur -11.8347 5.04513 14.8409
rtibia 39.6477
rfoot -13.9057 -11.0403
rtoes -15.7771
lfemur -3.77569 0.070904 -24.0153
ltibia 30.2573
lfoot -22.098 19.2037
ltoes 6.397
36
root 6.64713 17.4952 -0.735058 -4.64525 8.52368 -0.671623
lowerback 4.96342 -3.56428 3.15807
upperback 2.74133 -4.61807 -1.25536
thorax -0.30517 -2.27489 -2.80575
lowerneck -12.4589 -3.74301 -1.25582
upperneck 2.61136 -5.10228 4.88721
head 3.23729 -2.3413 1.49352
rclavicle -3.36443e-014 1.59028e-015
rhumerus -19.8751 37.6225 -109.493
rradius 64.5999
rwrist -8.54341
rhand -49.2523 49.9332
rfingers 7.12502
rthumb -21.8713 21.1492
lclavicle -3.36443e-014 1.59028e-015
lhumerus -11.2553 -32.0137 102.325
lradius 78.1321
lwrist 27.4425
lhand -41.5722 14.438
lfingers 7.12502
lthumb -14.483 43.9125
rfemur -12.003 4.84399 14.2603
rtibia 40.1672
rfoot -14.6159 -10.7751
rtoes -14.8448
lfemur -3.59917 -0.365223 -24.5133
ltibia 30.0075
lfoot -21.9868 18.8309
ltoes 6.61209
37
root 6.64546 17.4976 -0.731981 -4.68308 9.3179 -0.525851
lowerback 5.01698 -3.65695 3.02626
upperback 2.76179 -4.74577 -1.33801
thorax -0.319712 -2.33937 -2.80649
lowerneck -10.3489 -3.60579 -2.76503
upperneck 0.563912 -4.73789 6.93301
head 2.26073 -2.16809 2.49804
rclavicle -5.45415e-015 1.53064e-014
rhumerus -19.8749 37.2588 -109.447
rradius 64.7853
rwrist -8.18854
rhand -49.1428 49.6641
rfingers 7.12502
rthumb -21.7661 20.8679
lclavicle -5.45415e-015 1.53064e-014
lhumerus -11.1845 -32.1413 102.285
lradius 78.2062
lwrist 27.5013
lhand -41.6658 14.6217
lfingers 7.12502
lthumb -14.5732 44.0897
rfemur -12.083 4.66619 14.0382
rtibia 40.5623
rfoot -14.9526 -10.4857
rtoes -16.0312
lfemur -3.4988 -0.787512 -24.6917
ltibia 29.8345
lfoot -21.8179 18.5511
ltoes 6.61094
38
root 6.64403 17.4958 -0.733583 -4.6053 10.0582 -0.616863
lowerback 4.98018 -3.76438 3.21932
upperback 2.73646 -4.88168 -1.37354
thorax -0.353608 -2.40646 -2.94265
lowerneck -9.64169 -3.53222 -3.40853
upperneck -0.178304 -4.56597 7.78134
head 1.92921 -2.08756 2.92055
rclavicle -6.98852e-014 9.74045e-015
rhumerus -19.9646 37.222 -109.505
rradius 64.9072
rwrist -8.39662
rhand -49.0298 50.0255
rfingers 7.12502
rthumb -21.6576 21.2168
lclavicle -6.98852e-014 9.74045e-015
lhumerus -11.078 -32.2981 102.208
lradius 78.3485
lwrist 27.6829
lhand -41.7277 15.4742
lfingers 7.12502
lthumb -14.6328 44.938
rfemur -12.3234 4.52795 14.0473
rtibia 40.8099
rfoot -15.2386 -9.87278
rtoes -16.4908
lfemur -3.61553 -1.23876 -24.6062
ltibia 29.7338
lfoot -21.6586 18.2927
ltoes 6.03669
39
root 6.64491 17.4994 -0.730043 -4.48751 10.8247 -0.802928
lowerback 4.81057 -3.90763 3.51423
upperback 2.70413 -5.06565 -1.37045
thorax -0.33078 -2.4962 -3.10151
lowerneck -10.5292 -3.56236 -2.89004
upperneck 0.750682 -4.67591 7.02448
head 2.36132 -2.1286 2.55477
rclavicle -2.33075e-014 5.56597e-015
rhumerus -20.2138 37.3387 -109.676
rradius 65.0849
rwrist -8.48258
rhand -49.1677 50.4098
rfingers 7.12502
rthumb -21.7901 21.6165
lclavicle -2.33075e-014 5.56597e-015
lhumerus -11.03 -32.3608 102.249
lradius 78.4171
lwrist 27.6238
lhand -41.7615 15.7844
lfingers 7.12502
lthumb -14.6654 45.2458
rfemur -12.5904 4.41789 14.1029
rtibia 40.8832
rfoot -15.4853 -9.17206
rtoes -16.6708
lfemur -3.82632 -1.74646 -24.4332
ltibia 29.7897
lfoot -21.5558 18.0603
ltoes 5.32448
40
root 6.64697 17.5076 -0.723621 -4.38822 11.6205 -0.895098
lowerback 4.61841 -4.04097 3.69981
upperback 2.69507 -5.24267 -1.35688
thorax -0.262227 -2.58213 -3.19262
lowerneck -12.7023 -3.73166 -1.43541
upperneck 2.87689 -5.07078 4.90508
head 3.38307 -2.3194 1.53061
rclavicle 2.78547e-014 -1.39149e-015
rhumerus -20.402 37.3918 -109.755
rradius 65.2671
rwrist -8.26116
rhand -49.6248 50.492
rfingers 7.12502
rthumb -22.229 21.7503
lclavicle 2.78547e-014 -1.39149e-015
lhumerus -10.9643 -32.4765 102.342
lradius 78.4032
lwrist 27.4639
lhand -41.9431 15.5991
lfingers 7.12502
lthumb -14.8404 45.0477
rfemur -12.7244 4.39141 14.053
rtibia 40.8087
rfoot -15.4054 -8.52963
rtoes -16.2983
lfemur -4.09099 -2.30586 -24.3736
ltibia 29.994
lfoot -21.3592 18.061
ltoes 4.75294
41
root 6.64084 17.5015 -0.720098 -4.38088 12.4479 -0.971068
lowerback 4.59742 -4.1552 3.8339
upperback 2.67109 -5.38995 -1.34799
thorax -0.298493 -2.65574 -3.24869
lowerneck -10.6451 -3.53236 -2.83342
upperneck 0.952933 -4.63207 6.60906
head 2.43044 -2.11382 2.40572
rclavicle -1.24489e-014 0
rhumerus -20.4014 37.5315 -109.718
rradius 65.2672
rwrist -8.47731
rhand -50.0348 51.1339
rfingers 7.12502
rthumb -22.6225 22.4396
lclavicle -1.24489e-014 0
lhumerus -10.9156 -32.6906 102.385
lradius 78.375
lwrist 27.4363
lhand -42.2033 15.4698
lfingers 7.12502
lthumb -15.091 44.8997
rfemur -12.6461 4.40555 14.0355
rtibia 40.6029
rfoot -15.3747 -7.84569
rtoes -13.5784
lfemur -4.31401 -2.75444 -24.3083
ltibia 30.2401
lfoot -21.0089 18.1579
ltoes 3.23957
